# xmcd
#
# Track frame offsets: 
#        150
#        19903
#        36662
#        51427
#        72517
#        87058
#        101537
#        125155
#        141010
#        160058
#        172359
#        187248
#        203832
#        218235
#        235843
#
# Disc length: 3470 seconds
#
# Revision: 0
# Processed by: cddbd v1.5.2PL0 Copyright (c) Steve Scherf et al.
# Submitted via: ExactAudioCopy v0.95b4
#
DISCID=ea0d8c0f
DTITLE=The Charlie Daniels Band - The epic triology - Volume two - Dis
DTITLE=k 1
DYEAR=2007
DGENRE=Southern Rock
TTITLE0=Midnight Wind
TTITLE1=Sugar Hill Saturday Night
TTITLE2=Heaven Can Be Anywhere
TTITLE3=Maria Teresa
TTITLE4=Indian Man
TTITLE5=Grapes Of Wrath
TTITLE6=Redneck Fiddlin' Man
TTITLE7=Ode To Sweet Smoky
TTITLE8=Good Ole Boy
TTITLE9=Black Bayou
TTITLE10=Passing Lane
TTITLE11=Blue Star
TTITLE12=Jitterbug
TTITLE13=Behind Your Eyes
TTITLE14=Reflections
EXTD=
EXTT0=
EXTT1=
EXTT2=
EXTT3=
EXTT4=
EXTT5=
EXTT6=
EXTT7=
EXTT8=
EXTT9=
EXTT10=
EXTT11=
EXTT12=
EXTT13=
EXTT14=
PLAYORDER=
